<?xml version="1.0" encoding="UTF-8"?>
<svg width="62px" height="41px" viewBox="0 0 62 41" version="1.1" xmlns="http://www.w3.org/2000/svg" xmlns:xlink="http://www.w3.org/1999/xlink">
    <title>F8A8EC71-9938-4E97-BECF-65AE435DEA1C</title>
    <g id="Web" stroke="none" stroke-width="1" fill="none" fill-rule="evenodd">
        <g id="Prepaid-Plans" transform="translate(-575.000000, -384.000000)">
            <g id="Group-4-Copy" transform="translate(564.000000, 339.000000)">
                <g id="undraw_mobile_life_381t-copy" transform="translate(11.000000, 45.000000)">
                    <ellipse id="Oval" fill="#006848" opacity="0.1" cx="31.1336447" cy="39.9384972" rx="30.548318" ry="1.01376796"></ellipse>
                    <rect id="Rectangle" fill="#3A3768" x="39.1850096" y="9.15790055" width="1" height="4.87670718" rx="0.1374"></rect>
                    <rect id="Rectangle" fill="#3A3768" x="19.4828391" y="5.33732597" width="1" height="1.60567956" rx="0.1374"></rect>
                    <rect id="Rectangle" fill="#3A3768" x="19.4708828" y="8.27659669" width="1" height="2.79487293" rx="0.1374"></rect>
                    <rect id="Rectangle" fill="#3A3768" x="19.4768609" y="12.0494365" width="1" height="2.81874033" rx="0.1374"></rect>
                    <rect id="Rectangle" fill="#006848" x="19.6711506" y="0.0316022099" width="19.8336897" height="40.2326851" rx="2.3394"></rect>
                    <rect id="Rectangle" fill="#E6E8EC" x="27.6746904" y="1.23272928" width="2.76967431" height="1" rx="0.2322"></rect>
                    <ellipse id="Oval" fill="#E6E8EC" cx="31.1820677" cy="1.51376796" rx="1" ry="1"></ellipse>
                    <path d="M36.7046775,1.07938122 L34.4329826,1.07938122 L34.4329826,1.3520663 C34.4329826,2.06716825 33.8521808,2.64687293 33.1357253,2.64687293 L25.8985837,2.64687293 C25.554481,2.64703131 25.2244263,2.51066544 24.981109,2.26780775 C24.7377916,2.02495006 24.6011677,1.6955189 24.6013263,1.3520663 L24.6013263,1.07938122 L22.4713135,1.07938122 C21.6013319,1.07938122 20.8960724,1.78330832 20.8960724,2.65164641 L20.8960724,37.6436464 C20.8960724,38.5119845 21.6013319,39.2159116 22.4713135,39.2159116 L36.7046775,39.2159116 C37.1224025,39.2159116 37.5230098,39.0502437 37.8183298,38.7553696 C38.1136499,38.4604955 38.2793209,38.0605822 38.2793209,37.6436464 L38.2793209,2.65164641 C38.2793209,2.23471063 38.1136499,1.83479729 37.8183298,1.5399232 C37.5230098,1.24504912 37.1224025,1.07938122 36.7046775,1.07938122 Z" id="Path" fill="#B4C404"></path>
                    <rect id="Rectangle" fill="#006848" x="24.9612106" y="5.58972376" width="9.32590529" height="3.22209945" rx="0.2328"></rect>
                    <g id="Group" opacity="0.3" transform="translate(23.620313, 27.395580)" fill="#006848">
                        <rect id="Rectangle" x="0.040651382" y="0.0328176796" width="11.9562888" height="1.07403315" rx="0.2328"></rect>
                        <rect id="Rectangle" x="0.040651382" y="1.70353591" width="11.9562888" height="1.07403315" rx="0.2328"></rect>
                        <rect id="Rectangle" x="0.040651382" y="3.37425414" width="11.9562888" height="1.07403315" rx="0.2328"></rect>
                        <rect id="Rectangle" x="0.040651382" y="5.04497238" width="11.9562888" height="1.07403315" rx="0.2328"></rect>
                        <rect id="Rectangle" x="0.040651382" y="6.71569061" width="4.54338976" height="1.07403315" rx="0.2328"></rect>
                    </g>
                    <rect id="Rectangle" fill="#006848" opacity="0.3" x="21.5088322" y="11.9742541" width="16.2605528" height="12.2917127" rx="0.3426"></rect>
                    <path d="M46.5405185,25.1806851 C46.558453,25.4193591 46.6254082,25.7021878 46.851382,25.7845304 C46.9603141,25.8152608 47.0758884,25.8133936 47.1837669,25.7791602 C47.4673486,25.717782 47.7250016,25.5704428 47.9214699,25.3573039 C48.1091836,25.1389171 48.2036383,24.8304309 48.124129,24.5541657 C48.0488044,24.2904309 47.8353846,24.0935249 47.6853332,23.8638011 C47.5101736,23.5958895 47.453979,23.2927735 47.3320249,23.0051713 C46.3671523,23.0976575 46.4867152,24.4634696 46.5405185,25.1806851 Z" id="Path" fill="#FBBEBE"></path>
                    <path d="M45.524234,13.6777901 C45.3957039,14.0954696 45.8512385,14.5501436 45.9983008,14.960663 C46.1453632,15.3711823 46.3432398,15.7661878 46.4227491,16.1958011 C46.4771502,16.4911602 46.4741611,16.7924862 46.4956825,17.0938122 C46.5351382,17.6576796 46.6606792,18.2108066 46.7945897,18.7591602 C46.9838976,19.551558 47.1865567,20.3405746 47.402567,21.1262099 C47.509799,21.483099 47.5942601,21.8464129 47.6554425,22.2139669 C47.7115458,22.6117019 47.7099351,23.0154307 47.65066,23.4127072 C47.2712038,23.2992123 46.8624705,23.3366301 46.51003,23.5171271 C46.2637851,23.0853792 46.1158099,22.6048079 46.0766145,22.109547 C46.0617711,21.8158757 46.0645659,21.5215807 46.0849839,21.2282431 C46.1232441,20.3982541 45.7627619,19.5670718 45.7508057,18.7364862 C45.7545369,18.4485974 45.7317238,18.1609764 45.6826548,17.8772597 C45.6431991,17.6821436 45.6467859,17.3169724 45.6043411,17.122453 C45.5367881,16.8133702 45.8273259,16.6707624 45.8111849,16.3539227 L45.7227084,14.6235359 C45.7041761,14.3204199 45.3992908,13.9486851 45.524234,13.6777901 Z" id="Path" fill="#006848"></path>
                    <path d="M45.524234,13.6777901 C45.3957039,14.0954696 45.8512385,14.5501436 45.9983008,14.960663 C46.1453632,15.3711823 46.3432398,15.7661878 46.4227491,16.1958011 C46.4771502,16.4911602 46.4741611,16.7924862 46.4956825,17.0938122 C46.5351382,17.6576796 46.6606792,18.2108066 46.7945897,18.7591602 C46.9838976,19.551558 47.1865567,20.3405746 47.402567,21.1262099 C47.509799,21.483099 47.5942601,21.8464129 47.6554425,22.2139669 C47.7115458,22.6117019 47.7099351,23.0154307 47.65066,23.4127072 C47.2712038,23.2992123 46.8624705,23.3366301 46.51003,23.5171271 C46.2637851,23.0853792 46.1158099,22.6048079 46.0766145,22.109547 C46.0617711,21.8158757 46.0645659,21.5215807 46.0849839,21.2282431 C46.1232441,20.3982541 45.7627619,19.5670718 45.7508057,18.7364862 C45.7545369,18.4485974 45.7317238,18.1609764 45.6826548,17.8772597 C45.6431991,17.6821436 45.6467859,17.3169724 45.6043411,17.122453 C45.5367881,16.8133702 45.8273259,16.6707624 45.8111849,16.3539227 L45.7227084,14.6235359 C45.7041761,14.3204199 45.3992908,13.9486851 45.524234,13.6777901 Z" id="Path" fill="#006848" opacity="0.1"></path>
                    <path d="M41.1589929,12.3370387 C41.1823134,12.4383801 41.2292118,12.5328175 41.2958924,12.6127072 C41.9015229,13.4559359 42.59135,14.2356233 43.3547654,14.939779 C43.4326342,14.8596476 43.4977532,14.7680898 43.5478594,14.6682873 C43.8939222,14.0360184 44.0673081,13.3240304 44.0506214,12.6037569 C43.7044868,12.4927735 43.3129184,12.3376354 43.2017249,11.9927514 C43.114444,11.720663 43.2322134,11.3960663 43.0773795,11.1538122 C42.8585794,10.8125083 41.9271845,10.7683536 41.6276795,11.0165746 C41.4321941,11.1788729 41.5021384,11.3304309 41.4399657,11.550011 C41.3712171,11.7892818 41.1207328,12.0810608 41.1589929,12.3370387 Z" id="Path" fill="#FBBEBE"></path>
                    <path d="M41.1589929,12.3370387 C41.1823134,12.4383801 41.2292118,12.5328175 41.2958924,12.6127072 C41.9015229,13.4559359 42.59135,14.2356233 43.3547654,14.939779 C43.4326342,14.8596476 43.4977532,14.7680898 43.5478594,14.6682873 C43.8939222,14.0360184 44.0673081,13.3240304 44.0506214,12.6037569 C43.7044868,12.4927735 43.3129184,12.3376354 43.2017249,11.9927514 C43.114444,11.720663 43.2322134,11.3960663 43.0773795,11.1538122 C42.8585794,10.8125083 41.9271845,10.7683536 41.6276795,11.0165746 C41.4321941,11.1788729 41.5021384,11.3304309 41.4399657,11.550011 C41.3712171,11.7892818 41.1207328,12.0810608 41.1589929,12.3370387 Z" id="Path" fill="#000000" opacity="0.1"></path>
                    <path d="M41.4698564,39.9188066 C41.5673488,39.9885224 41.6793196,40.0354287 41.7974588,40.0560442 C42.9345145,40.335975 44.1091289,40.4324659 45.2767388,40.3418564 C45.4321706,40.3299227 45.64021,40.2463867 45.6019499,40.0954254 C45.5636897,39.9444641 45.3628241,39.9629613 45.2253268,39.9205967 C45.095601,39.8812155 44.9981573,39.7767956 44.9019091,39.6819227 C44.5432205,39.326895 44.1086094,39.0530166 43.6811721,38.7821215 C43.5769933,38.7075223 43.4607093,38.6514077 43.3374288,38.6162431 C43.1891708,38.5828287 43.0349346,38.6108729 42.8860789,38.6395138 C42.5094558,38.7105193 41.7908828,38.6991823 41.4931712,38.9772376 C41.2546432,39.198011 41.2193722,39.7004199 41.4698564,39.9188066 Z" id="Path" fill="#3F3D56"></path>
                    <path d="M45.8380866,39.6210608 C45.8380866,39.713547 45.8482494,39.8173702 45.9193893,39.8770387 C45.9758738,39.9159568 46.0440564,39.934287 46.1124834,39.9289503 C46.6083046,39.9256083 47.0621527,39.6505127 47.2937647,39.2129282 L48.9676452,39.0178122 C49.2844868,38.9808177 49.6073066,38.9426298 49.8978444,38.8113591 C50.2415877,38.6568177 50.5159846,38.3835359 50.7826098,38.1168177 C50.8292204,38.0772797 50.8646667,38.0262676 50.8854339,37.9688398 C50.9135312,37.8632265 50.8328262,37.7528398 50.7317956,37.7110718 C50.6274629,37.6766297 50.5158017,37.6706555 50.408378,37.693768 C49.5911656,37.8059448 48.7709642,38.171116 47.9716863,37.9676464 C47.7756032,37.9181215 47.5819113,37.833989 47.3804478,37.8483094 C47.2717134,37.8623202 47.1653515,37.8908171 47.064204,37.9330387 C46.8041547,38.0285083 46.0269959,38.1633591 45.8548254,38.3835359 C45.6826548,38.6037127 45.8380866,39.3585193 45.8380866,39.6210608 Z" id="Path" fill="#3F3D56"></path>
                    <path d="M41.6067559,20.9657017 C41.3676302,21.3380331 40.8642704,21.4185856 40.5121577,21.6853039 C39.9741247,22.0952265 39.8790722,22.8589834 39.8485837,23.5350276 C39.8270624,24.0034254 39.8145082,24.4777901 39.918528,24.9348508 C39.9908635,25.2534807 40.1187958,25.556 40.2174352,25.868663 C40.4266702,26.5464972 40.4846582,27.261326 40.5163424,27.9707845 C40.5988408,29.7608398 40.5259074,31.5616354 40.7554682,33.3409503 C40.8212278,33.849326 40.9120956,34.3553149 40.9617142,34.8654807 C41.1267109,36.5552928 40.8475316,38.2976133 41.300675,39.9337238 C41.790308,39.4034724 42.476352,39.0967916 43.1987358,39.0852376 C43.3487872,39.0852376 43.5048168,39.0941878 43.6423141,39.0339227 C43.7798114,38.9736575 43.8880159,38.8137459 43.8312235,38.6759116 C43.7965919,38.6161156 43.7565721,38.5595945 43.7116606,38.5070497 C43.5143818,38.2087072 43.8503535,37.7862541 43.7062803,37.4574807 C43.6512813,37.3315801 43.5305228,37.2379006 43.4958496,37.1042431 C43.4581873,36.9598453 43.5311206,36.8118674 43.5514463,36.6638895 C43.5914999,36.365547 43.4199271,36.0880884 43.3308528,35.8016796 C43.1963445,35.3690829 43.2501478,34.9066519 43.2967774,34.453768 C43.4511527,32.9740178 43.51902,31.4865472 43.5000343,29.9989171 C43.4868824,28.9923094 43.436666,27.964221 43.7272038,26.9999779 C44.270898,27.5114264 44.7365615,28.0996433 45.1093508,28.7458785 C45.3413028,29.140884 45.5415706,29.5621436 45.6186887,30.0132376 C45.6784701,30.3438011 45.6641226,30.6821215 45.6527641,31.0180552 L45.4805935,36.1674475 C45.4453225,37.2050829 45.4154318,38.2737459 45.7765117,39.2481326 C46.6923634,38.7606409 47.6297364,38.2934365 48.546186,37.803558 C48.5306428,37.4658343 48.0769016,37.3429171 47.9089158,37.0493481 C47.8489383,36.9267427 47.816499,36.7925469 47.8138633,36.6561326 C47.6972895,35.2610829 47.9830448,33.8672265 48.246681,32.4924641 C48.3471138,31.9685746 48.4445575,31.441105 48.4445575,30.9076685 C48.4445575,30.0615691 48.1958667,29.2369503 47.9400021,28.4314254 C47.6685944,27.5769724 47.3846325,26.7266961 47.1030619,25.8764199 C46.9207285,25.330453 46.7383951,24.7838895 46.5106278,24.2552265 C46.2948168,23.7558011 46.0389522,23.2724862 45.8530319,22.7605304 C45.5583094,21.9382983 45.4578766,21.061768 45.3586394,20.1947845 C44.1127941,20.4424088 42.8490144,20.718674 41.6067559,20.9657017 Z" id="Path" fill="#3A3768"></path>
                    <ellipse id="Oval" fill="#FBBEBE" cx="42.2332655" cy="10.0159337" rx="1.7468138" ry="1.74351381"></ellipse>
                    <path d="M42.8860789,14.2309171 L42.7593422,13.285768 C42.7526619,13.1804333 42.7241636,13.0776269 42.6756482,12.9838453 C42.6171359,12.9005893 42.5427922,12.8296299 42.4568481,12.7750055 L41.2396979,11.8877348 C41.1799164,11.8423867 41.097418,11.7946519 41.0286694,11.8280663 C40.9854483,11.8567451 40.9550265,11.9010086 40.9437797,11.9515801 C40.7518813,12.5190276 40.8702486,13.1365967 40.9378016,13.7314917 C40.9939961,14.227337 41.0131262,14.7267624 41.0322563,15.2232044 C41.0597562,15.6738808 41.0597562,16.1258098 41.0322563,16.5764862 C40.9658989,17.3569503 40.733349,18.1427845 40.8893786,18.9101215 C40.9916049,19.4179006 41.1733405,19.8898785 41.2157853,20.4066077 C41.2444804,20.7646188 41.2355132,21.1285967 41.3490979,21.4681105 C41.767568,21.289105 42.2410371,21.3081989 42.6965717,21.332663 L43.8001371,21.3923315 C43.953481,21.406385 44.1079358,21.4027811 44.2604543,21.3815912 C44.4305445,21.3462224 44.5934413,21.2824778 44.7422927,21.1930387 C45.1346289,20.9722583 45.4776187,20.6737752 45.7502078,20.3159116 C45.5636897,19.4167072 45.7442297,18.4882652 45.6204821,17.5783204 C45.5487444,17.0538343 45.3711935,16.5490387 45.2874995,16.0269392 C45.1840776,15.3825193 45.227718,14.714232 45.0394065,14.0883094 C44.9350145,13.7713995 44.8023665,13.4644692 44.6430555,13.1712044 C44.4809518,12.8376443 44.2138687,12.5662456 43.8826355,12.3984972 C43.821626,12.3651032 43.7531444,12.347656 43.6835633,12.347779 C43.5072081,12.357326 43.3984058,12.5434917 43.3499829,12.7129503 C43.2902014,12.9164199 43.2728648,13.1306298 43.2268331,13.3340994 C43.156291,13.6336354 43.059445,13.9797127 42.8860789,14.2309171 Z" id="Path" fill="#B4C404"></path>
                    <path d="M39.3057682,25.4790276 C39.5389158,25.7242652 39.963364,25.664 40.2335762,25.4617238 C40.8224234,25.0225635 40.8768245,24.1806409 40.9091065,23.4479116 C40.920465,23.1847735 40.9383994,22.910895 41.062147,22.6805746 C41.2516542,22.3225635 41.6426248,22.1375912 41.9678359,21.9001105 C42.7390165,21.3362431 43.1921598,20.4083978 43.3272659,19.466232 C43.462372,18.5240663 43.307538,17.5568398 43.0468909,16.6397348 C42.5961388,15.0543425 41.8369145,13.5763536 41.0663317,12.1192486 C41.0433666,12.0649072 41.0062038,12.0177172 40.9587251,11.9826077 C40.8020977,11.8853481 40.6323184,12.076884 40.5253096,12.2266519 C40.1624363,12.7344309 39.5646218,13.0059227 39.0170238,13.3060552 C38.4694258,13.6061878 37.9092736,14.0059669 37.743679,14.6068287 C37.6324855,15.0101878 37.7191686,15.438011 37.8034605,15.8467403 C37.8877523,16.2554696 38.1824748,16.5800663 38.4054596,16.9243536 C38.6639134,17.3043194 38.8971615,17.7007698 39.1037069,18.1111602 C39.181797,18.2642703 39.2419743,18.4258414 39.2830512,18.5926851 C39.3195603,18.789397 39.3353885,18.9893765 39.3302786,19.1893702 C39.3434305,20.4257017 39.3559846,21.6662099 39.2059331,22.8941878 C39.1216413,23.5881326 38.9853396,24.2850608 39.0475123,24.9825856 C39.0642511,25.1717348 39.1736512,25.3388066 39.3057682,25.4790276 Z" id="Path" fill="#006848"></path>
                    <path d="M40.7823698,23.1740331 C41.0316585,23.2856133 41.2827405,23.4001768 41.5523548,23.4443315 C41.8219691,23.4884862 42.115496,23.4526851 42.3295136,23.2868066 C42.5435312,23.1209282 42.6553225,22.8046851 42.5333683,22.5612376 C42.7250776,22.5672135 42.9169616,22.558236 43.1072702,22.5343867 C43.2160724,22.5200663 43.346396,22.4782983 43.365526,22.3702983 C43.3852539,22.2432044 43.2316156,22.1674254 43.107868,22.1316243 L42.4413049,21.9478453 C42.2460117,21.8853187 42.0434977,21.8480206 41.8387079,21.8368619 C41.711779,21.8395069 41.5852528,21.8520757 41.4602914,21.874453 L40.4487894,22.0313812 C40.4218434,22.0336691 40.3957256,22.0418155 40.3722691,22.0552486 C40.3416863,22.0810627 40.3206411,22.116352 40.3124877,22.1554917 C40.2634669,22.3106298 40.0368952,22.7426298 40.1146111,22.8959779 C40.1785772,23.0254586 40.6430791,23.1054144 40.7823698,23.1740331 Z" id="Path" fill="#FBBEBE"></path>
                    <path d="M47.1526805,23.828 C47.0295167,24.1025835 46.7924048,24.3098279 46.503454,24.3954475 C46.4414925,24.4173849 46.3746458,24.4217228 46.31036,24.4079779 C46.1907971,24.3751602 46.1250375,24.250453 46.0754189,24.1370829 C44.8911485,21.4466298 44.9575059,18.3850387 44.2048575,15.5448177 C43.9812749,14.7017017 43.6823677,13.8544088 43.736171,12.9838453 C43.745736,12.8281105 43.7786158,12.6532818 43.9089394,12.5661657 C44.0249154,12.4885967 44.1827384,12.5094807 44.3100729,12.5661657 C44.4374073,12.6228508 44.5462096,12.715337 44.6687615,12.7785856 C44.8666381,12.8794254 45.0967967,12.9080663 45.2869016,13.0220331 C45.5690701,13.1914917 45.7131433,13.5137017 45.8392822,13.8168177 C46.1088965,14.464221 46.3773152,15.1295249 46.3988365,15.8312265 C46.4442704,17.1940552 45.8386844,18.503779 46.1543304,19.8290166 C46.222419,20.090361 46.3038277,20.3480664 46.3982387,20.6011271 C46.7146879,21.5152874 46.9742354,22.4480927 47.1753975,23.3942099 C47.2106685,23.5559116 47.2184401,23.6794254 47.1526805,23.828 Z" id="Path" fill="#006848"></path>
                    <path d="M41.1004071,10.1692818 C41.2044268,9.9998232 41.3496957,9.85124862 41.4064881,9.66090608 C41.4465417,9.52605525 41.4381723,9.37867403 41.4859974,9.24620994 C41.6055603,8.91922652 42.0210414,8.79869613 42.3641868,8.85538122 C42.7073323,8.9120663 43.017598,9.09405525 43.3529719,9.18534807 C43.5388922,9.2360663 43.7977459,9.22055249 43.8503535,9.03558011 C43.8850268,8.91266298 43.8013328,8.79034254 43.7224213,8.68950276 L42.7324405,7.4239337 C42.6015192,7.45734807 42.4562503,7.48897238 42.337883,7.4239337 C42.2691343,7.38693923 42.2183201,7.3201105 42.1417999,7.29922652 C41.9355539,7.23955801 41.7627855,7.55639779 41.5559417,7.50090608 C41.4961603,7.48539227 41.4489329,7.44123757 41.3891515,7.43646409 C41.2223613,7.42274033 41.1595907,7.69840884 40.9928005,7.7121326 C40.923454,7.71809945 40.8570966,7.67394475 40.7877502,7.68050829 C40.7262956,7.69303394 40.6713677,7.72711379 40.6329162,7.77657459 C40.301727,8.1280221 40.166621,8.63222099 40.1845554,9.11493923 C40.2024898,9.59765746 40.1193936,10.0642652 40.3041183,10.509989 C40.3860189,10.7039116 40.5504178,10.9330387 40.7512835,10.868 C40.7512835,10.6054586 40.9963874,10.3435138 40.9993765,10.0815691" id="Path" fill="#3A3768"></path>
                    <g id="Group" opacity="0.1" transform="translate(41.076495, 26.202210)" fill="#000000">
                        <path d="M3.39917292,1.61701657 C3.04345995,1.02971421 2.60946427,0.49336309 2.10908935,0.0226740331 C1.81855153,0.986917127 1.86996357,2.01500552 1.88191986,3.02161326 C1.90090562,4.50924332 1.83303832,5.99671394 1.67866295,7.47646409 C1.63203343,7.92696133 1.57823013,8.39177901 1.71273838,8.82437569 C1.80181273,9.11078453 1.97338547,9.38943646 1.9333319,9.68658564 C1.91300621,9.83456354 1.84007285,9.98492818 1.87773516,10.1269392 C1.9124084,10.2605967 2.03316692,10.3542762 2.08816585,10.4801768 C2.23223913,10.8089503 1.89626741,11.2296133 2.09354618,11.5297459 C2.13845766,11.5822906 2.17847749,11.6388117 2.21310906,11.6986077 C2.27289051,11.8370387 2.16169702,11.9969503 2.0241997,12.0566188 C1.88670238,12.1162873 1.73067281,12.1067403 1.58062138,12.1079337 C1.0148567,12.1174878 0.467099847,12.3080248 0.0179344333,12.6515138 C0.0575901575,13.0162652 0.125749308,13.377365 0.221789158,13.7315138 C0.711991774,13.2006665 1.39902213,12.8939311 2.12224127,12.8830276 C2.27229269,12.8830276 2.42832226,12.8919779 2.56581958,12.8317127 C2.70331691,12.7714475 2.81152132,12.6115359 2.75472895,12.4737017 C2.72009738,12.4139056 2.68007754,12.3573846 2.63516606,12.3048398 C2.43788729,12.0064972 2.77385901,11.5840442 2.62978573,11.2552707 C2.5747868,11.1293702 2.45402828,11.0356906 2.41935505,10.9020331 C2.38169274,10.7576354 2.4546261,10.6096575 2.47495179,10.4616796 C2.51500536,10.163337 2.34343261,9.88587845 2.25435826,9.59946961 C2.11985001,9.16687293 2.17365331,8.70444199 2.22028284,8.25155801 C2.37465821,6.77180786 2.4425255,5.28433725 2.42353975,3.79670718 C2.41038783,2.79009945 2.36017142,1.76201105 2.65070924,0.797767956 C2.92044819,1.05171017 3.17064358,1.32556745 3.39917292,1.61701657 L3.39917292,1.61701657 Z" id="Path"></path>
                    </g>
                    <g id="Group" opacity="0.1" transform="translate(40.119991, 8.600000)" fill="#000000">
                        <path d="M0.0967129164,0.571027624 C0.0967129164,0.489082873 0.0967129164,0.406740331 0.0967129164,0.324 C0.090751378,0.387845304 0.0895590703,0.451690608 0.0967129164,0.515535912 C0.0955206087,0.534033149 0.0967129164,0.552530387 0.0967129164,0.571027624 Z" id="Path"></path>
                        <path d="M3.2329805,0.346674033 C2.8976066,0.25478453 2.58793872,0.0727955801 2.24419541,0.0167071823 C1.90045211,-0.0393812155 1.48437326,0.0805524862 1.366006,0.407535912 C1.31818084,0.54 1.32655025,0.687381215 1.28649668,0.822232044 C1.22970431,1.01257459 1.0844354,1.16114917 0.980415685,1.33060773 L0.881776302,1.24349171 C0.881776302,1.50543646 0.636672381,1.76738122 0.633683308,2.02992265 C0.432817656,2.09496133 0.268418684,1.86583425 0.186518106,1.6719116 C0.102769117,1.45786757 0.0607668185,1.22982293 0.0627705164,1.0000442 C0.0573901864,1.3121105 0.0627705164,1.61641989 0.186518106,1.91058564 C0.268418684,2.10510497 0.432817656,2.33423204 0.633683308,2.26859669 C0.633683308,2.00605525 0.878787229,1.7441105 0.881776302,1.48216575 L0.980415685,1.56928177 C1.0844354,1.3998232 1.22970431,1.25124862 1.28649668,1.06090608 C1.32655025,0.926055249 1.31818084,0.778674033 1.366006,0.646209945 C1.48556889,0.319226519 1.90104993,0.198696133 2.24419541,0.255381215 C2.5873409,0.312066298 2.8976066,0.494055249 3.2329805,0.585348066 C3.41890079,0.636066298 3.67775445,0.620552486 3.73036212,0.43558011 C3.74553229,0.372697614 3.7370221,0.306443488 3.70644954,0.249414365 C3.62335333,0.384265193 3.39977073,0.392022099 3.2329805,0.346674033 Z" id="Path"></path>
                    </g>
                    <path d="M37.7030276,16.3843536 C37.6524016,16.749182 37.5789257,17.1104863 37.4830319,17.4661436 L37.0645618,19.1684862 C37.0197257,19.3474917 36.9742918,19.5360442 36.9946175,19.7216133 C37.022117,19.9716243 37.1643968,20.1929945 37.3084701,20.3994475 C38.1267523,21.572313 39.1261473,22.6082864 40.269445,23.4687956 C40.2030876,23.1292818 40.4392243,22.812442 40.6616113,22.5451271 C40.8839983,22.2778122 41.0992115,22.0218343 41.3891515,21.8487956 C40.6646004,21.1665856 39.9627662,20.4615028 39.283649,19.733547 C39.2122796,19.6635968 39.150742,19.5843111 39.1007178,19.4978564 C38.9369166,19.1822099 39.1007178,18.805105 39.2435955,18.4787182 C39.6937497,17.4410829 39.9059739,16.2638232 39.6172295,15.1700994 C39.5084273,14.7595801 39.3183223,14.3484641 38.9721877,14.0960663 C38.8209406,13.9862762 38.6164881,13.9110939 38.4485022,13.9946298 C38.3781548,14.0350561 38.3170636,14.0897311 38.2691579,14.1551381 C37.7329184,14.8061215 37.7968845,15.5907624 37.7030276,16.3843536 Z" id="Path" fill="#006848"></path>
                    <g id="Group" opacity="0.2" transform="translate(45.141633, 1.081768)">
                        <path d="M9.96018642,34.5092818 C9.98443764,34.644112 10.019421,34.7767976 10.0648039,34.9060773 C10.9148961,34.6327956 11.7731583,34.374232 12.6395907,34.1303867 C12.6342104,34.0945856 12.6294279,34.0575912 12.6228519,34.0205967 C12.561529,33.6404636 12.4009007,33.2831798 12.1571545,32.9847514 C11.8409106,32.6070497 11.4128755,32.4053702 10.9836447,32.4847293 C10.554414,32.5640884 10.2208335,32.9024088 10.0504564,33.3702099 C9.92191829,33.7356646 9.89081021,34.1282019 9.96018642,34.5092818 L9.96018642,34.5092818 Z" id="Path" fill="#3F3D56"></path>
                        <ellipse id="Oval" fill="#3F3D56" transform="translate(10.917786, 32.083640) rotate(-8.990000) translate(-10.917786, -32.083640) " cx="10.917786" cy="32.0836396" rx="1.35338957" ry="1.80744269"></ellipse>
                        <ellipse id="Oval" fill="#3F3D56" transform="translate(10.541067, 29.907583) rotate(-8.990000) translate(-10.541067, -29.907583) " cx="10.5410667" cy="29.9075828" rx="1.35338957" ry="1.80744269"></ellipse>
                        <ellipse id="Oval" fill="#3F3D56" transform="translate(10.164261, 27.731030) rotate(-8.990000) translate(-10.164261, -27.731030) " cx="10.1642613" cy="27.7310298" rx="1.35338957" ry="1.80744269"></ellipse>
                        <ellipse id="Oval" fill="#3F3D56" transform="translate(9.787549, 25.555066) rotate(-8.990000) translate(-9.787549, -25.555066) " cx="9.78754936" cy="25.5550662" rx="1.35338957" ry="1.80744269"></ellipse>
                        <path d="M12.1936212,9.75043094 C12.3348241,9.48061412 12.4574603,9.20151585 12.5606792,8.91507182 L8.96123848,8.97116022 L12.7489908,8.30466298 C12.9869284,7.37929878 13.0252367,6.41404572 12.8613799,5.47279558 C12.7188641,4.63976009 12.4190205,3.8413502 11.9778102,3.1200663 L7.368063,6.74254144 L11.440375,2.36704972 C10.0008378,0.625922652 7.715991,-0.303712707 5.35821084,0.129480663 C1.83708378,0.776883978 -0.513522606,4.21856354 0.108802228,7.81657459 C0.354701522,9.26994158 1.08022348,10.5995826 2.17006642,11.5941878 C1.95031516,12.0152607 1.77558748,12.4582546 1.64877223,12.9158453 L6.60584958,14.4899006 L1.47719949,13.7195801 C1.37062951,14.4335478 1.37910588,15.15993 1.50230769,15.8712265 C1.74820699,17.3245935 2.47372895,18.6542345 3.56357189,19.6488398 C2.87541723,20.9629492 2.64070767,22.4669086 2.89581316,23.9276685 C3.51813799,27.5262762 6.87725734,29.9183867 10.3989822,29.2715801 C13.9207071,28.6247735 16.2707157,25.1824972 15.6483908,21.5844862 C15.4024915,20.1311192 14.6769696,18.8014782 13.5871266,17.8068729 C14.2763021,16.4931088 14.512065,14.9891319 14.2578744,13.5280442 C14.0115644,12.0741517 13.2848971,10.74434 12.1936212,9.75043094 Z" id="Path" fill="#006848"></path>
                        <path d="M1.50230769,15.8712265 C1.74820699,17.3245935 2.47372895,18.6542345 3.56357189,19.6488398 C2.87541723,20.9629492 2.64070767,22.4669086 2.89581316,23.9276685 C3.51813799,27.5262762 6.87725734,29.9183867 10.3989822,29.2715801 C13.9207071,28.6247735 16.2707157,25.1824972 15.6483908,21.5844862 C15.4024915,20.1311192 14.6769696,18.8014782 13.5871266,17.8068729 C14.2501028,16.5413039 1.37616885,15.1402873 1.50230769,15.8712265 Z" id="Path" fill="#000000" opacity="0.1"></path>
                    </g>
                    <path d="M51.9567174,30.6176796 C51.9567174,33.7389392 53.9181466,36.2647072 56.3428819,36.2647072" id="Path" fill="#006848"></path>
                    <path d="M56.3428819,36.2647072 C56.3428819,33.1082431 58.5320784,30.5544309 61.2371888,30.5544309" id="Path" fill="#006848"></path>
                    <path d="M53.5457082,30.901105 C53.5457082,33.8654365 54.7969338,36.2647072 56.3428819,36.2647072" id="Path" fill="#006848"></path>
                    <path d="M56.3428819,36.2647072 C56.3428819,32.2317127 58.8728327,28.968442 62,28.968442" id="Path" fill="#006848"></path>
                    <ellipse id="Oval" fill="#006848" opacity="0.1" cx="55.8359353" cy="36.8769061" rx="1.11671738" ry="1"></ellipse>
                    <path d="M55.086276,36.0015691 C55.086276,36.0015691 55.7229484,35.9818785 55.9148468,35.8452376 C56.1067452,35.7085967 56.8946647,35.546895 56.9424898,35.7646851 C56.990315,35.9824751 57.8989929,36.8530387 57.1816156,36.8590055 C56.4642383,36.8649724 55.5077352,36.7468287 55.3194236,36.6304751 C55.1311121,36.5141215 55.086276,36.0015691 55.086276,36.0015691 Z" id="Path" fill="#A8A8A8"></path>
                    <path d="M57.1929741,36.7826298 C56.4755967,36.7885967 55.5226805,36.6710497 55.3307821,36.5540994 C55.1849154,36.4657901 55.1269274,36.1471602 55.1071995,36.0003757 L55.086276,36.0003757 C55.086276,36.0003757 55.1263295,36.5129282 55.318228,36.6292818 C55.5101264,36.7456354 56.4612492,36.8631823 57.18042,36.8578122 C57.3878616,36.8578122 57.4595993,36.7820331 57.4554146,36.6728398 C57.4267195,36.7402652 57.347808,36.7814365 57.1929741,36.7826298 Z" id="Path" fill="#000000" opacity="0.2"></path>
                </g>
            </g>
        </g>
    </g>
</svg>